<svg xmlns="http://www.w3.org/2000/svg" xmlns:xlink="http://www.w3.org/1999/xlink" viewBox="0 0 84 84"><defs><style>.cls-1,.cls-2,.cls-3,.cls-4{fill:none;stroke-miterlimit:10;stroke-width:12px;}.cls-1{stroke:url(#linear-gradient);}.cls-2{stroke:url(#linear-gradient-2);}.cls-3{stroke:url(#linear-gradient-3);}.cls-4{stroke:url(#linear-gradient-4);}</style><linearGradient id="linear-gradient" x1="42" y1="42" x2="84" gradientUnits="userSpaceOnUse"><stop offset="0" stop-color="#307dff"/><stop offset="0.08" stop-color="#3289ee"/><stop offset="0.25" stop-color="#36a2cc"/><stop offset="0.44" stop-color="#3ab6b1"/><stop offset="0.62" stop-color="#3cc49d"/><stop offset="0.81" stop-color="#3ecc92"/><stop offset="1" stop-color="#3ecf8e"/></linearGradient><linearGradient id="linear-gradient-2" x1="0" y1="42" x2="42" y2="0" gradientTransform="matrix(1, 0, 0, -1, 0, 42)" xlink:href="#linear-gradient"/><linearGradient id="linear-gradient-3" x1="42" y1="96" x2="84" y2="54" gradientTransform="matrix(1, 0, 0, -1, 0, 138)" xlink:href="#linear-gradient"/><linearGradient id="linear-gradient-4" x1="0" y1="96" x2="42" y2="54" gradientTransform="translate(0 -12)" xlink:href="#linear-gradient"/></defs><g id="Layer_2" data-name="Layer 2"><g id="Layer_2-2" data-name="Layer 2"><path class="cls-1" d="M61,6H78a0,0,0,0,1,0,0V23A13,13,0,0,1,65,36H48a0,0,0,0,1,0,0V19A13,13,0,0,1,61,6Z"/><path class="cls-2" d="M6,6H23A13,13,0,0,1,36,19V36a0,0,0,0,1,0,0H19A13,13,0,0,1,6,23V6A0,0,0,0,1,6,6Z" transform="translate(42 42) rotate(-180)"/><path class="cls-3" d="M48,48H65A13,13,0,0,1,78,61V78a0,0,0,0,1,0,0H61A13,13,0,0,1,48,65V48a0,0,0,0,1,0,0Z"/><path class="cls-4" d="M19,48H36a0,0,0,0,1,0,0V65A13,13,0,0,1,23,78H6a0,0,0,0,1,0,0V61A13,13,0,0,1,19,48Z" transform="translate(42 126) rotate(180)"/></g></g></svg>