<svg xmlns="http://www.w3.org/2000/svg" xmlns:xlink="http://www.w3.org/1999/xlink" viewBox="0 0 1300.89 101.07"><defs><style>.cls-1{font-size:90px;fill:#333;font-family:PTSans-Bold, PT Sans;font-weight:700;letter-spacing:0.3em;}.cls-2{font-family:PTSans-Regular, PT Sans;font-weight:400;}.cls-3{letter-spacing:0.3em;}.cls-4{letter-spacing:0.31em;}.cls-5{letter-spacing:0.3em;}.cls-6{letter-spacing:0.26em;}.cls-10,.cls-7,.cls-8,.cls-9{fill:none;stroke-miterlimit:10;stroke-width:12px;}.cls-7{stroke:url(#linear-gradient);}.cls-8{stroke:url(#linear-gradient-2);}.cls-9{stroke:url(#linear-gradient-3);}.cls-10{stroke:url(#linear-gradient-4);}</style><linearGradient id="linear-gradient" x1="42" y1="43.43" x2="84" y2="1.43" gradientUnits="userSpaceOnUse"><stop offset="0" stop-color="#307dff"/><stop offset="0.08" stop-color="#3289ee"/><stop offset="0.25" stop-color="#36a2cc"/><stop offset="0.44" stop-color="#3ab6b1"/><stop offset="0.62" stop-color="#3cc49d"/><stop offset="0.81" stop-color="#3ecc92"/><stop offset="1" stop-color="#3ecf8e"/></linearGradient><linearGradient id="linear-gradient-2" x1="0" y1="43.43" x2="42" y2="1.43" gradientTransform="matrix(1, 0, 0, -1, 0, 44.86)" xlink:href="#linear-gradient"/><linearGradient id="linear-gradient-3" x1="42" y1="97.43" x2="84" y2="55.43" gradientTransform="matrix(1, 0, 0, -1, 0, 140.86)" xlink:href="#linear-gradient"/><linearGradient id="linear-gradient-4" x1="0" y1="97.43" x2="42" y2="55.43" gradientTransform="translate(0 -12)" xlink:href="#linear-gradient"/></defs><g id="Layer_2" data-name="Layer 2"><g id="Layer_1-2" data-name="Layer 1"><text class="cls-1" transform="translate(119.92 76.5)">WEB<tspan class="cls-2" x="258.75" y="0">•</tspan><tspan class="cls-3" x="326.43" y="0">P</tspan><tspan class="cls-4" x="404.91" y="0">L</tspan><tspan class="cls-5" x="479.25" y="0">ANT</tspan><tspan class="cls-2" x="724.94" y="0">•</tspan><tspan x="792.62" y="0">MEDI</tspan><tspan class="cls-6" x="1103.48" y="0">A</tspan></text></g><g id="Layer_2-2" data-name="Layer 2"><path class="cls-7" d="M61,7.43H78a0,0,0,0,1,0,0v17a13,13,0,0,1-13,13H48a0,0,0,0,1,0,0v-17A13,13,0,0,1,61,7.43Z"/><path class="cls-8" d="M6,7.43H23a13,13,0,0,1,13,13v17a0,0,0,0,1,0,0H19a13,13,0,0,1-13-13v-17a0,0,0,0,1,0,0Z" transform="translate(42 44.86) rotate(-180)"/><path class="cls-9" d="M48,49.43H65a13,13,0,0,1,13,13v17a0,0,0,0,1,0,0H61a13,13,0,0,1-13-13v-17a0,0,0,0,1,0,0Z"/><path class="cls-10" d="M19,49.43H36a0,0,0,0,1,0,0v17a13,13,0,0,1-13,13H6a0,0,0,0,1,0,0v-17A13,13,0,0,1,19,49.43Z" transform="translate(42 128.86) rotate(180)"/></g></g></svg>